<svg aria-hidden="true" style="position: absolute; width: 0; height: 0; overflow: hidden;" version="1.1" xmlns="http://www.w3.org/2000/svg" xmlns:xlink="http://www.w3.org/1999/xlink">
<defs>
<symbol id="title-icons-people" viewBox="0 0 32 32">
<path fill="none" stroke="#73fff2" style="stroke: var(--color1, #73fff2)" stroke-linejoin="round" stroke-linecap="round" stroke-miterlimit="4" stroke-width="2.2857" d="M12.942 20.072c4.684 0 8.687 0.71 8.687 3.546 0 2.834-3.977 3.566-8.687 3.566-4.686 0-8.689-0.704-8.689-3.54 0-2.837 3.977-3.572 8.689-3.572zM12.942 16.026c-0 0-0.001 0-0.002 0-3.076 0-5.57-2.494-5.57-5.57s2.494-5.57 5.57-5.57c3.076 0 5.57 2.494 5.57 5.57v0c0 0.006 0 0.013 0 0.020 0 3.058-2.473 5.538-5.527 5.55h-0.041z"></path>
<path fill="none" stroke="#73fff2" style="stroke: var(--color1, #73fff2)" stroke-linejoin="round" stroke-linecap="round" stroke-miterlimit="4" stroke-width="2.2857" d="M21.693 14.58c2.045-0.299 3.598-2.038 3.602-4.141v-0c0-0 0-0.001 0-0.002 0-2.072-1.504-3.793-3.48-4.13l-0.025-0.003M24.375 19.47c1.97 0.293 3.345 0.984 3.345 2.406 0 0.978-0.648 1.615-1.694 2.011"></path>
</symbol>
<symbol id="title-icons-money" viewBox="0 0 32 32">
<path fill="none" stroke="#73fff2" style="stroke: var(--color1, #73fff2)" stroke-linejoin="miter" stroke-linecap="round" stroke-miterlimit="4" stroke-width="2.2857" d="M5.333 24.254h21.333M5.333 27.936h21.333M8.381 10.667v-2.286h2.286M21.333 8.381h2.286v2.286M8.381 15.238v2.286h2.286M21.333 17.524h2.286v-2.286M16 16c-1.683 0-3.048-1.364-3.048-3.048s1.364-3.048 3.048-3.048v0c1.683 0 3.048 1.364 3.048 3.048s-1.364 3.048-3.048 3.048v0zM6.857 5.333h18.286c0.842 0 1.524 0.682 1.524 1.524v0 12.19c0 0.842-0.682 1.524-1.524 1.524v0h-18.286c-0.842 0-1.524-0.682-1.524-1.524v0-12.19c0-0.842 0.682-1.524 1.524-1.524v0z"></path>
</symbol>
<symbol id="chart" viewBox="0 0 32 32">
<path fill="none" stroke="#73fff2" style="stroke: var(--color1, #73fff2)" stroke-linejoin="round" stroke-linecap="round" stroke-miterlimit="4" stroke-width="2.2857" d="M10.647 14.034v8.712M16.571 9.867v12.879M22.4 18.638v4.108"></path>
<path fill="none" stroke="#73fff2" style="stroke: var(--color1, #73fff2)" stroke-linejoin="round" stroke-linecap="round" stroke-miterlimit="4" stroke-width="2.2857" d="M22.473 3.619h-11.901c-4.148 0-6.747 2.936-6.747 7.093v11.212c0 4.155 2.587 7.092 6.747 7.092h11.901c4.16 0 6.747-2.936 6.747-7.092v-11.212c0-4.157-2.587-7.093-6.747-7.093z"></path>
</symbol>
<symbol id="lifebuoy" viewBox="0 0 32 32">
<path fill="none" stroke="#fff" style="stroke: var(--color2, #fff)" stroke-linejoin="miter" stroke-linecap="butt" stroke-miterlimit="4" stroke-width="1.4545" d="M20.702 20.707c-1.191 1.231-2.857 1.995-4.702 1.995s-3.511-0.764-4.7-1.993l-0.002-0.002M20.702 20.707c2.597-2.66 2.597-6.972 0-9.632M20.702 20.707l3.526 3.611M11.298 20.707c-2.597-2.66-2.597-6.972 0-9.632M11.298 20.707l-3.526 3.611M20.702 11.075c-1.191-1.231-2.857-1.995-4.702-1.995s-3.511 0.764-4.7 1.993l-0.002 0.002M20.702 11.075l3.526-3.611M11.298 11.074l-3.526-3.61M24.228 24.318c-2.083 2.154-5 3.491-8.228 3.491s-6.144-1.337-8.225-3.487l-0.003-0.003M24.228 24.318c4.545-4.655 4.545-12.201 0-16.854M7.772 24.318c-4.545-4.655-4.545-12.201 0-16.854M24.228 7.464c-2.083-2.154-5-3.491-8.228-3.491s-6.144 1.337-8.225 3.487l-0.003 0.003"></path>
</symbol>
<symbol id="wallet" viewBox="0 0 32 32">
<path fill="none" stroke="#fff" style="stroke: var(--color2, #fff)" stroke-linejoin="round" stroke-linecap="round" stroke-miterlimit="4" stroke-width="1.9763" d="M28.504 19.348h-5.332c-1.958 0-3.546-1.587-3.546-3.546s1.587-3.546 3.546-3.546h5.332M23.776 15.722h-0.411"></path>
<path fill="none" stroke="#fff" style="stroke: var(--color2, #fff)" stroke-linejoin="round" stroke-linecap="round" stroke-miterlimit="4" stroke-width="1.9763" d="M10.205 4.337h11.386c3.817 0 6.912 3.095 6.912 6.912v0 9.455c0 3.817-3.095 6.912-6.912 6.912v0h-11.386c-3.817 0-6.912-3.095-6.912-6.912v0-9.454c0-3.817 3.095-6.912 6.912-6.912v0z"></path>
<path fill="none" stroke="#fff" style="stroke: var(--color2, #fff)" stroke-linejoin="round" stroke-linecap="round" stroke-miterlimit="4" stroke-width="1.9763" d="M9.267 10.316h7.112"></path>
</symbol>
<symbol id="icon-profile" viewBox="0 0 32 32">
<path fill="none" stroke="#fff" style="stroke: var(--color2, #fff)" stroke-linejoin="round" stroke-linecap="round" stroke-miterlimit="4" stroke-width="2.2458" d="M15.699 20.623c-5.066 0-9.392 0.767-9.392 3.834s4.298 3.86 9.392 3.86c5.066 0 9.391-0.767 9.391-3.833s-4.298-3.862-9.391-3.862z"></path>
<path fill="none" stroke="#fff" style="stroke: var(--color2, #fff)" stroke-linejoin="round" stroke-linecap="round" stroke-miterlimit="4" stroke-width="2.1382" d="M15.699 16.247c3.324-0.001 6.017-2.695 6.017-6.019s-2.695-6.019-6.019-6.019-6.019 2.695-6.019 6.019v0c-0 0.006-0 0.012-0 0.019 0 3.306 2.674 5.988 5.977 6h0.045z"></path>
</symbol>
<symbol id="icon-delete" viewBox="0 0 32 32">
<path fill="none" opacity="0.4" stroke="#fff" style="stroke: var(--color2, #fff)" stroke-linejoin="round" stroke-linecap="round" stroke-miterlimit="4" stroke-width="2.21" d="M24.576 12.47s-0.666 8.27-1.054 11.754c-0.184 1.664-1.212 2.64-2.896 2.67-3.204 0.060-6.412 0.062-9.614-0.006-1.62-0.032-2.63-1.020-2.812-2.654-0.388-3.516-1.052-11.764-1.052-11.764M26.274 8.504h-20.824M22.26 8.504c-0.964 0-1.794-0.68-1.982-1.626l-0.3-1.492c-0.185-0.677-0.794-1.166-1.518-1.166h-5.2c-0.724 0-1.333 0.489-1.515 1.155l-0.003 0.011-0.298 1.492c-0.188 0.946-1.020 1.626-1.984 1.626"></path>
</symbol>
<symbol id="icon-edit" viewBox="0 0 32 32">
<path fill="none" stroke="#fff" style="stroke: var(--color2, #fff)" stroke-linejoin="round" stroke-linecap="round" stroke-miterlimit="4" stroke-width="2.72" d="M17.927 29.474h10.964"></path>
<path fill="none" stroke="#fff" style="stroke: var(--color2, #fff)" stroke-linejoin="round" stroke-linecap="round" stroke-miterlimit="4" stroke-width="2.72" d="M16.465 4.31c0.627-0.736 1.554-1.2 2.59-1.2 0.805 0 1.544 0.28 2.125 0.748l2.615 2.031c1.57 0.95 2.058 2.969 1.088 4.51-0.052 0.084-14.417 18.050-14.417 18.050-0.47 0.58-1.179 0.95-1.975 0.958h-0.001l-5.502 0.069-1.241-5.246c-0.042-0.17-0.066-0.366-0.066-0.567 0-0.586 0.205-1.125 0.547-1.548l-0.004 0.005 14.242-17.809z"></path>
<path fill="none" stroke="#fff" style="stroke: var(--color2, #fff)" stroke-linejoin="round" stroke-linecap="round" stroke-miterlimit="4" stroke-width="2.72" d="M13.802 7.646l8.241 6.326"></path>
</symbol>
<symbol id="icon-work" viewBox="0 0 32 32">
<path fill="none" stroke="#73fff2" style="stroke: var(--color1, #73fff2)" stroke-linejoin="round" stroke-linecap="round" stroke-miterlimit="4" stroke-width="1.4545" d="M15.993 22.084v-3.359"></path>
<path fill="none" stroke="#73fff2" style="stroke: var(--color1, #73fff2)" stroke-linejoin="round" stroke-linecap="round" stroke-miterlimit="4" stroke-width="1.4545" d="M24.003 7.058c2.185 0 3.943 1.814 3.943 4.052v4.556c-3.181 1.906-7.382 3.058-11.959 3.058s-8.766-1.152-11.947-3.058v-4.569c0-2.238 1.772-4.039 3.956-4.039h16.007z"></path>
<path fill="none" stroke="#73fff2" style="stroke: var(--color1, #73fff2)" stroke-linejoin="round" stroke-linecap="round" stroke-miterlimit="4" stroke-width="1.4545" d="M20.519 7.053v-0.485c0-1.615-1.28-2.927-2.858-2.927h-3.336c-1.578 0-2.858 1.311-2.858 2.927v0.485M4.073 20.503l0.243 3.322c0.165 2.24 1.988 3.97 4.179 3.97h14.996c2.192 0 4.014-1.731 4.179-3.97l0.243-3.322"></path>
</symbol>
<symbol id="icon-tree-user" viewBox="0 0 32 32">
<path fill="none" stroke="#fff" style="stroke: var(--color2, #fff)" stroke-linejoin="round" stroke-linecap="round" stroke-miterlimit="4" stroke-width="1.4545" d="M23.614 14.429c1.804-0.259 3.192-1.842 3.196-3.761 0-1.891-1.346-3.459-3.111-3.756M25.993 18.87c1.746 0.268 2.965 0.894 2.965 2.186 0 0.888-0.574 1.466-1.502 1.829"></path>
<path fill="none" stroke="#fff" style="stroke: var(--color2, #fff)" stroke-linejoin="round" stroke-linecap="round" stroke-miterlimit="4" stroke-width="1.4545" d="M15.855 19.418c-4.156 0-7.705 0.645-7.705 3.22 0 2.575 3.528 3.239 7.705 3.239 4.155 0 7.703-0.639 7.703-3.215 0-2.577-3.526-3.244-7.703-3.244zM15.855 15.742c2.727 0 4.938-2.263 4.938-5.057s-2.211-5.057-4.938-5.057-4.938 2.264-4.938 5.057c-0.010 2.783 2.184 5.048 4.902 5.057h0.036z"></path>
<path fill="none" stroke="#fff" style="stroke: var(--color2, #fff)" stroke-linejoin="round" stroke-linecap="round" stroke-miterlimit="4" stroke-width="1.4545" d="M8.094 14.429c-1.806-0.259-3.192-1.842-3.196-3.761 0-1.891 1.346-3.459 3.111-3.756M5.714 18.87c-1.747 0.268-2.966 0.894-2.966 2.186 0 0.888 0.574 1.466 1.503 1.829"></path>
</symbol>
<symbol id="icon-graph" viewBox="0 0 32 32">
<path fill="none" stroke="#fff" style="stroke: var(--color2, #fff)" stroke-linejoin="round" stroke-linecap="round" stroke-miterlimit="4" stroke-width="1.4545" d="M22.824 18.392c0.873 0 1.605 0.737 1.471 1.619-0.783 5.192-5.121 9.046-10.354 9.046-5.789 0-10.482-4.807-10.482-10.735 0-4.884 3.624-9.435 7.702-10.463 0.877-0.222 1.775 0.409 1.775 1.333 0 6.262 0.206 7.882 1.367 8.762 1.16 0.881 2.525 0.436 8.522 0.436z"></path>
<path fill="none" stroke="#fff" style="stroke: var(--color2, #fff)" stroke-linejoin="round" stroke-linecap="round" stroke-miterlimit="4" stroke-width="1.4545" d="M28.531 13.178c0.069-4.022-4.755-10.508-10.635-10.395-0.458 0.008-0.824 0.398-0.844 0.865-0.148 3.308 0.051 7.595 0.163 9.537 0.025 0.596 0.494 1.074 1.083 1.115l0.004 0c1.951 0.114 6.288 0.271 9.471-0.223 0.433-0.067 0.751-0.451 0.756-0.899z"></path>
</symbol>
<symbol id="icon-paper" viewBox="0 0 32 32">
<path fill="none" stroke="#fff" style="stroke: var(--color2, #fff)" stroke-linejoin="round" stroke-linecap="round" stroke-miterlimit="4" stroke-width="1.4545" d="M19.539 3.658h-8.601c-2.691-0.012-4.895 2.185-4.959 4.938v14.187c-0.059 2.798 2.106 5.117 4.839 5.178 0.039 0 0.078 0.002 0.118 0h10.329c2.707-0.111 4.841-2.403 4.821-5.178v-12.139l-6.547-6.986z"></path>
<path fill="none" stroke="#fff" style="stroke: var(--color2, #fff)" stroke-linejoin="round" stroke-linecap="round" stroke-miterlimit="4" stroke-width="1.4545" d="M19.199 3.641v3.853c0 1.881 1.484 3.405 3.32 3.409h3.562M18.958 20.338h-6.982M16.314 15.37h-4.338"></path>
</symbol>
<symbol id="icon-plus" viewBox="0 0 32 32">
<path fill="none" stroke="#73fff2" style="stroke: var(--color1, #73fff2)" stroke-linejoin="round" stroke-linecap="round" stroke-miterlimit="4" stroke-width="1.3333" d="M16 11.103v9.769M20.889 15.987h-9.778"></path>
<path fill="none" stroke="#73fff2" style="stroke: var(--color1, #73fff2)" stroke-linejoin="round" stroke-linecap="round" stroke-miterlimit="4" stroke-width="1.3333" d="M22.247 2.667h-12.494c-4.357 0-7.087 3.083-7.087 7.447v11.773c0 4.364 2.717 7.447 7.086 7.447h12.494c4.369 0 7.087-3.083 7.087-7.447v-11.773c0-4.364-2.717-7.447-7.086-7.447z"></path>
</symbol>
</defs>
</svg>
