<svg width="36" height="36" fill="none" xmlns="http://www.w3.org/2000/svg"><g clip-path="url(#a)"><path d="M1.406 0h11.25A6.742 6.742 0 0 1 18 2.631 6.742 6.742 0 0 1 23.344 0h11.25C35.37 0 36 .63 36 1.406v33.188C36 35.37 35.37 36 34.594 36H1.406C.63 36 0 35.37 0 34.594V1.406C0 .63.63 0 1.406 0Zm26.438 2.813H24.75v4.064l.73-.521a1.404 1.404 0 0 1 1.634 0l.73.52V2.813Zm5.343 30.375v-2.532h-9.843a3.943 3.943 0 0 0-3.677 2.532h13.52Zm-13.78-4.074a6.715 6.715 0 0 1 3.937-1.27h9.843V2.812h-2.53V9.61c0 1.142-1.295 1.81-2.224 1.145l-2.136-1.526-2.136 1.526c-.923.66-2.224.005-2.224-1.145V3.073a3.943 3.943 0 0 0-2.53 3.677v22.364ZM2.811 33.187h13.521a3.943 3.943 0 0 0-3.677-2.53H2.812v2.53Zm0-5.343h9.844c1.469 0 2.829.471 3.938 1.27V6.75a3.942 3.942 0 0 0-3.938-3.938H2.812v25.032Zm19.125-12.516c0 .777.63 1.406 1.407 1.406h5.906a1.406 1.406 0 1 0 0-2.812h-5.906c-.777 0-1.407.63-1.407 1.406Zm0 5.719c0 .776.63 1.406 1.407 1.406h5.906a1.406 1.406 0 1 0 0-2.813h-5.906c-.777 0-1.407.63-1.407 1.407ZM5.345 15.328c0 .777.63 1.406 1.406 1.406h5.906a1.406 1.406 0 1 0 0-2.812H6.75c-.777 0-1.406.63-1.406 1.406Zm7.312-7.125H6.75a1.406 1.406 0 1 0 0 2.813h5.906a1.406 1.406 0 1 0 0-2.813ZM5.344 21.047c0 .776.63 1.406 1.406 1.406h5.906a1.406 1.406 0 1 0 0-2.813H6.75c-.777 0-1.406.63-1.406 1.407Z" fill="#fff"/></g><defs><clipPath id="a"><path fill="#fff" transform="matrix(-1 0 0 1 36 0)" d="M0 0h36v36H0z"/></clipPath></defs></svg>