<svg width="41" height="40" fill="none" xmlns="http://www.w3.org/2000/svg"><g clip-path="url(#a)"><path d="M22.063 11.361c0 .863-.7 1.563-1.563 1.563h-1.372l-2.013 3.142a1.563 1.563 0 0 1-2.804-.366l-1.46-4.562-.684 1.066c-.287.449-.783.72-1.315.72H8a1.562 1.562 0 1 1 0-3.125h1.997l2.013-3.142a1.562 1.562 0 0 1 2.804.366l1.46 4.562.684-1.067c.287-.448.783-.72 1.315-.72H20.5c.863 0 1.563.7 1.563 1.563ZM40.5 38.437c0 .864-.7 1.563-1.563 1.563H19.776c-.863 0-1.563-.7-1.563-1.563 0-2.423.765-4.728 2.213-6.665a11.248 11.248 0 0 1 3.393-3 6.658 6.658 0 0 1-.68-6.049h-3.066l2.029 2.955a1.563 1.563 0 0 1-1.288 2.447h-12.5a1.562 1.562 0 0 1-1.289-2.447l2.029-2.956h-6.99C1.199 22.723.5 22.023.5 21.16V1.562C.5.7 1.2 0 2.063 0h25c.863 0 1.562.7 1.562 1.563v16.915a6.66 6.66 0 0 1 7.384 6.611c0 1.361-.412 2.627-1.115 3.682a11.248 11.248 0 0 1 3.393 3 11.052 11.052 0 0 1 2.213 6.666ZM25.829 25.09a3.532 3.532 0 0 0 3.527 3.528 3.532 3.532 0 0 0 3.528-3.528 3.528 3.528 0 0 0-7.055 0ZM17.845 25l-1.563-2.277h-3.44L11.28 25h6.565Zm7.655-5.402V3.125H3.625v16.473H25.5Zm11.724 17.277a7.934 7.934 0 0 0-1.44-3.232 8.099 8.099 0 0 0-3.4-2.632 6.607 6.607 0 0 1-3.028.732 6.609 6.609 0 0 1-3.027-.732 8.1 8.1 0 0 0-3.401 2.632 7.936 7.936 0 0 0-1.44 3.232h15.736Z" fill="#fff"/></g><defs><clipPath id="a"><path fill="#fff" transform="translate(.5)" d="M0 0h40v40H0z"/></clipPath></defs></svg>