<svg width="36" height="36" fill="none" xmlns="http://www.w3.org/2000/svg"><path d="M17.719 26.438h-5.063a1.406 1.406 0 0 1 0-2.813h5.063a1.406 1.406 0 0 1 0 2.813ZM1.406 3.938H28.97a1.406 1.406 0 0 1 0 2.812H2.812v18.281a1.406 1.406 0 1 1-2.812 0V5.344c0-.777.63-1.407 1.406-1.407Zm27.563 22.5h-5.625c-.777 0-1.407-.63-1.407-1.407v-5.625c0-.776.63-1.406 1.407-1.406h5.625c.776 0 1.406.63 1.406 1.406v5.625c0 .777-.63 1.407-1.406 1.407Zm-1.407-5.625H24.75v2.812h2.813v-2.813ZM7.032 9.563h27.562c.776 0 1.406.63 1.406 1.406v19.687c0 .777-.63 1.407-1.406 1.407H7.03c-.776 0-1.406-.63-1.406-1.407V10.97c0-.777.63-1.406 1.406-1.406ZM8.436 29.25h24.75V12.375H8.438V29.25Z" fill="#fff"/></svg>