<svg width="41" height="40" fill="none" xmlns="http://www.w3.org/2000/svg"><g clip-path="url(#a)"><path d="M40.5 19.844v6.953c-.083 2.073-3.043 2.071-3.125 0V23.71l-4.972 4.973c-.294.293-.691.457-1.105.457h-7.885L13.012 39.542a1.562 1.562 0 1 1-2.21-2.21l10.86-10.859c.292-.293.69-.458 1.104-.458h7.884l4.61-4.609h-3.353c-2.074-.082-2.072-3.043 0-3.125h7.03c.864 0 1.563.7 1.563 1.563Zm-1.562 11.64c-.863 0-1.563.7-1.563 1.562v5.39c.083 2.074 3.043 2.072 3.125 0v-5.39c0-.862-.7-1.562-1.562-1.562Zm-6.25 0c-.863 0-1.563.7-1.563 1.562v5.39c.083 2.074 3.043 2.072 3.125 0v-5.39c0-.862-.7-1.562-1.562-1.562Zm-6.25 0c-.863 0-1.563.7-1.563 1.562v5.39c.083 2.074 3.044 2.072 3.125 0v-5.39c0-.862-.7-1.562-1.562-1.562Zm-6.25 4.765c-.863 0-1.563.7-1.563 1.563v.625c.083 2.073 3.044 2.071 3.125 0v-.625c0-.863-.7-1.563-1.562-1.563Zm-3.203-9.765c.863 0 1.562-.7 1.562-1.562v-.96c4.898-1.813 3.716-9.018-1.562-9.118-2.078-.085-2.067-3.028 0-3.114.627 0 1.128.332 1.374.912a1.563 1.563 0 0 0 2.877-1.221c-.523-1.232-1.495-2.133-2.689-2.553V7.813c-.082-2.074-3.043-2.072-3.125 0v1.06c-4.89 1.813-3.724 8.995 1.563 9.096 2.066.085 2.079 3.05 0 3.136-.608 0-1.21-.397-1.465-.965a1.562 1.562 0 1 0-2.85 1.282 4.828 4.828 0 0 0 2.752 2.53v.97c0 .863.7 1.562 1.563 1.562Zm-5.39 5.35a1.563 1.563 0 0 0 .559-3.022C-1.45 23.318 2.204 3.37 16.907 3.125a13.25 13.25 0 0 1 13.081 10.973 1.562 1.562 0 1 0 3.078-.54 16.424 16.424 0 0 0-5.552-9.667C16.983-5.112.455 2.534.502 16.406c-.079 6.67 4.298 13.007 10.534 15.324.184.07.373.104.56.104Z" fill="#fff"/></g><defs><clipPath id="a"><path fill="#fff" transform="translate(.5)" d="M0 0h40v40H0z"/></clipPath></defs></svg>