<svg width="36" height="36" fill="none" xmlns="http://www.w3.org/2000/svg"><path d="M1.406 10.969H17.73c.196-.546.416-1.066.66-1.553 1.313-2.626 3.172-4.072 5.235-4.072h5.344c2.063 0 3.922 1.446 5.235 4.072C35.362 11.733 36 14.781 36 18c0 3.219-.638 6.267-1.796 8.584-1.313 2.626-3.172 4.072-5.235 4.072h-5.344c-1.576 0-3.033-.845-4.219-2.415v1.009c0 .777-.63 1.406-1.406 1.406H1.406C.63 30.656 0 30.026 0 29.25V12.375c0-.777.63-1.406 1.406-1.406Zm15.188 8.437H2.812v2.813h13.782v-2.813Zm0-5.625H2.812v2.813h13.782V13.78ZM33.187 18c0-5.634-2.227-9.844-4.218-9.844-1.992 0-4.219 4.21-4.219 9.844 0 5.634 2.227 9.844 4.219 9.844 1.991 0 4.218-4.21 4.218-9.844Zm-9.562 9.844h.841C22.63 25.128 21.937 21.27 21.937 18c0-3.269.692-7.127 2.529-9.844h-.841c-1.991 0-4.219 4.21-4.219 9.844 0 5.634 2.228 9.844 4.219 9.844Zm-20.813 0h13.782V25.03H2.812v2.813Z" fill="#fff"/></svg>