<svg width="41" height="40" fill="none" xmlns="http://www.w3.org/2000/svg"><g clip-path="url(#a)"><path d="M20.188 18.75h1.562v7.813a1.562 1.562 0 1 0 3.125 0V18.75h1.563c.863 0 1.562-.7 1.562-1.563v-12.5c0-.862-.7-1.562-1.563-1.562h-1.562V1.562a1.562 1.562 0 1 0-3.125 0v1.563h-1.563c-.863 0-1.562.7-1.562 1.563v12.5c0 .863.7 1.562 1.563 1.562Zm1.562-12.5h3.125v9.375H21.75V6.25Zm-14.063 25H9.25v1.563a1.562 1.562 0 1 0 3.125 0V31.25h1.563c.862 0 1.562-.7 1.562-1.563v-12.5c0-.863-.7-1.562-1.563-1.562h-1.562v-1.563a1.562 1.562 0 1 0-3.125 0v1.563H7.687c-.862 0-1.562.7-1.562 1.563v12.5c0 .863.7 1.562 1.563 1.562Zm1.563-12.5h3.125v9.375H9.25V18.75Zm29.688 18.125H3.624V1.562a1.562 1.562 0 1 0-3.125 0v36.876C.5 39.3 1.2 40 2.063 40h36.874a1.562 1.562 0 1 0 0-3.125Zm0-24.375h-1.563V4.687a1.562 1.562 0 1 0-3.125 0V12.5h-1.563c-.862 0-1.562.7-1.562 1.563v9.374c0 .863.7 1.563 1.563 1.563h1.562v4.688a1.562 1.562 0 1 0 3.125 0V25h1.563c.862 0 1.562-.7 1.562-1.563v-9.375c0-.862-.7-1.562-1.563-1.562Zm-1.563 9.375H34.25v-6.25h3.125v6.25Z" fill="#fff"/></g><defs><clipPath id="a"><path fill="#fff" transform="translate(.5)" d="M0 0h40v40H0z"/></clipPath></defs></svg>