<svg width="36" height="36" fill="none" xmlns="http://www.w3.org/2000/svg"><g clip-path="url(#a)"><path d="M1.406 24.75h9.563v-7.031c0-.777.63-1.407 1.406-1.407h11.25c.777 0 1.406.63 1.406 1.407v4.218h9.563c.776 0 1.406.63 1.406 1.407v11.25C36 35.37 35.37 36 34.594 36H1.406C.63 36 0 35.37 0 34.594v-8.438c0-.776.63-1.406 1.406-1.406Zm23.625 8.438h8.157V24.75H25.03v8.438Zm-11.25-7.032v7.032h8.438V19.125H13.78v7.031ZM2.812 33.188h8.157v-5.626H2.813v5.625ZM21.877 8.39l.507 2.953a1.406 1.406 0 0 1-2.04 1.483l-2.653-1.395-2.652 1.395a1.406 1.406 0 0 1-2.04-1.483l.507-2.953L11.359 6.3a1.406 1.406 0 0 1 .78-2.399l2.964-.43L16.43.783a1.406 1.406 0 0 1 2.522 0l1.326 2.686 2.965.431a1.406 1.406 0 0 1 .78 2.399l-2.146 2.091Zm-2.735-2.244a1.406 1.406 0 0 1-1.059-.769l-.392-.794-.392.794c-.205.415-.6.703-1.059.77l-.877.127.635.618c.331.323.483.789.404 1.245l-.15.873.785-.412c.41-.215.899-.215 1.308 0l.785.412-.15-.873a1.406 1.406 0 0 1 .404-1.245l.635-.618-.877-.128Z" fill="#fff"/></g><defs><clipPath id="a"><path fill="#fff" transform="matrix(-1 0 0 1 36 0)" d="M0 0h36v36H0z"/></clipPath></defs></svg>