<svg width="36" height="36" fill="none" xmlns="http://www.w3.org/2000/svg"><path d="M24.328 14.59c.034.002-.034 0 0 0Zm-3.72-5.856a1.406 1.406 0 0 1 1.982.167l1.925 2.28.99-.878a1.406 1.406 0 0 1 1.865 2.105l-2.067 1.832c-.258.229-.632.35-.975.35-.422 0-.788-.205-1.032-.495l-2.855-3.379a1.406 1.406 0 0 1 .167-1.982Zm0 7.875a1.406 1.406 0 0 1 1.982.167l1.925 2.28.99-.878a1.406 1.406 0 0 1 1.865 2.105l-2.067 1.832c-.258.229-.632.35-.975.35-.422 0-.788-.205-1.032-.495l-2.855-3.379a1.406 1.406 0 0 1 .167-1.982ZM9.844 10.235h7.312a1.406 1.406 0 1 1 0 2.812H9.844a1.406 1.406 0 1 1 0-2.812ZM0 25.98a7.04 7.04 0 0 0 7.031 7.032H28.97A7.04 7.04 0 0 0 36 25.98c0-.776-.63-1.406-1.406-1.406h-1.407V4.394c0-.776-.63-1.406-1.406-1.406H4.22c-.777 0-1.407.63-1.407 1.407v20.18H1.407C.63 24.574 0 25.203 0 25.98Zm30.375-1.406H5.625V5.801h24.75v18.773ZM3.053 27.387h29.893a4.226 4.226 0 0 1-3.977 2.812H7.03a4.226 4.226 0 0 1-3.978-2.812Zm6.79-9.348h7.313a1.406 1.406 0 1 1 0 2.813H9.844a1.406 1.406 0 1 1 0-2.813Z" fill="#fff"/></svg>