<svg width="36" height="36" fill="none" xmlns="http://www.w3.org/2000/svg"><g clip-path="url(#a)"><path d="M4.172 5.532h1.36V1.406C5.532.63 6.162 0 6.938 0h22.124c.777 0 1.406.63 1.406 1.406v4.126h1.36A4.17 4.17 0 0 1 36 9.703v16.594c0 2.3-1.871 4.171-4.172 4.171h-7.404l1.36 2.72h3.278a1.406 1.406 0 1 1 0 2.812H6.937a1.406 1.406 0 0 1 0-2.813h3.28l1.36-2.719H4.171A4.176 4.176 0 0 1 0 26.297V9.703c0-2.3 1.871-4.171 4.172-4.171Zm0 2.812c-.75 0-1.36.61-1.36 1.36v12.421h2.72V8.345h-1.36Zm23.484-5.531H8.344v19.312h19.312V2.812Zm4.172 5.531h-1.36v13.781h2.72V9.703c0-.751-.609-1.359-1.36-1.359ZM13.361 33.187h9.278l-1.36-2.719h-6.558l-1.36 2.72Zm-9.19-5.531h27.657c.75 0 1.36-.61 1.36-1.36v-1.358H2.811v1.359c0 .75.61 1.359 1.36 1.359ZM24.939 9.703c0-.777-.63-1.406-1.407-1.406h-1.383a1.406 1.406 0 1 0 0 2.812h1.383c.777 0 1.407-.63 1.407-1.406Zm-5.532 0c0-.777-.63-1.406-1.406-1.406h-5.531a1.406 1.406 0 1 0 0 2.812H18c.777 0 1.406-.63 1.406-1.406Zm5.532 6.881c0-.777-.63-1.406-1.407-1.406h-1.383a1.406 1.406 0 1 0 0 2.812h1.383c.777 0 1.407-.63 1.407-1.406Zm-5.532 0c0-.777-.63-1.406-1.406-1.406h-5.531a1.406 1.406 0 1 0 0 2.812H18c.777 0 1.406-.63 1.406-1.406Z" fill="#fff"/></g><defs><clipPath id="a"><path fill="#fff" transform="matrix(-1 0 0 1 36 0)" d="M0 0h36v36H0z"/></clipPath></defs></svg>