<svg width="41" height="40" fill="none" xmlns="http://www.w3.org/2000/svg"><path d="m22.52 15.458-3.582 3.582-.458-.457a1.562 1.562 0 1 0-2.21 2.21l1.563 1.562c.305.305.705.457 1.105.457s.8-.152 1.104-.457l4.688-4.688a1.562 1.562 0 1 0-2.21-2.21ZM36.125 3.125H33c-.862 0-1.563-.7-1.563-1.563C31.438.7 30.738 0 29.875 0h-18.75c-.863 0-1.563.7-1.563 1.563 0 .417-.162.81-.457 1.104A1.552 1.552 0 0 1 8 3.125H4.875c-.863 0-1.563.7-1.563 1.563v14.69c0 5.69 2.06 10.75 5.957 14.633 2.966 2.956 7.05 5.184 10.925 5.959a1.564 1.564 0 0 0 .612 0 21.053 21.053 0 0 0 12.122-7.279 21.054 21.054 0 0 0 4.76-13.313V4.688c0-.863-.7-1.563-1.563-1.563Zm-1.563 16.253c0 8.386-5.894 15.68-14.06 17.463-5.768-1.289-14.064-6.9-14.064-17.463V6.25H8c1.252 0 2.43-.488 3.315-1.373a4.67 4.67 0 0 0 1.107-1.752H28.58A4.695 4.695 0 0 0 33 6.25h1.563v13.128ZM30.398 8.93a7.87 7.87 0 0 1-3.217-2.16c-.296-.331-.72-.52-1.163-.52H14.982c-.444 0-.867.189-1.163.52a7.87 7.87 0 0 1-3.217 2.16 1.563 1.563 0 0 0-1.04 1.472v8.976c0 6.597 4.34 12.26 10.486 14.119a1.564 1.564 0 0 0 .904 0c6.193-1.872 10.485-7.611 10.485-14.12v-8.975c0-.661-.416-1.251-1.04-1.472Zm-2.085 10.448c0 4.922-3.19 9.37-7.814 10.98a11.557 11.557 0 0 1-7.811-10.98v-7.935a11.026 11.026 0 0 0 2.96-2.068h9.703c.867.848 1.87 1.548 2.961 2.068v7.935Z" fill="#fff"/></svg>