<svg aria-hidden="true" style="position: absolute; width: 0; height: 0; overflow: hidden;" version="1.1" xmlns="http://www.w3.org/2000/svg" xmlns:xlink="http://www.w3.org/1999/xlink">
<defs>
<symbol id="close-modal" viewBox="0 0 32 32">
<path fill="none" stroke="#fff" style="stroke: var(--color1, #fff)" stroke-linejoin="miter" stroke-linecap="round" stroke-miterlimit="4" stroke-width="2" d="M4 4l24 24M4 28l24-24"></path>
</symbol>
<symbol id="Menu" viewBox="0 0 32 32">
<path fill="none" stroke="#fff" style="stroke: var(--color1, #fff)" stroke-linejoin="round" stroke-linecap="round" stroke-miterlimit="4" stroke-width="2.4" d="M2.667 16h26.667M2.667 22.667h18.667M2.667 9.333h26.667"></path>
</symbol>
<symbol id="book" viewBox="0 0 32 32">
<path fill="#fff" style="fill: var(--color1, #fff)" d="M1.25 0h10c0 0 0 0 0 0 1.928 0 3.643 0.91 4.74 2.325l0.010 0.014c1.106-1.428 2.822-2.339 4.75-2.339 0 0 0 0 0 0h10c0.69 0 1.25 0.56 1.25 1.25v29.5c0 0.69-0.56 1.25-1.25 1.25h-29.5c-0.69 0-1.25-0.56-1.25-1.25v-29.5c0-0.69 0.56-1.25 1.25-1.25zM24.75 2.5h-2.75v3.612l0.649-0.463c0.202-0.146 0.454-0.233 0.726-0.233s0.525 0.087 0.73 0.236l-0.004-0.003 0.649 0.462v-3.612zM29.5 29.5v-2.251h-8.749c-1.483 0.002-2.75 0.925-3.26 2.227l-0.008 0.024h12.018zM17.251 25.879c0.968-0.706 2.181-1.129 3.493-1.129 0.002 0 0.005 0 0.007 0h8.749v-22.251h-2.249v6.043c0 1.015-1.151 1.609-1.977 1.018l-1.899-1.356-1.899 1.356c-0.82 0.587-1.977 0.004-1.977-1.018v-5.811c-1.325 0.519-2.247 1.786-2.249 3.268v19.879zM2.499 29.5h12.019c-0.519-1.325-1.786-2.247-3.268-2.249h-8.75v2.249zM2.499 24.75h8.75c1.306 0 2.515 0.419 3.5 1.129v-19.879c-0.002-1.932-1.568-3.498-3.5-3.5h-8.75v22.251zM19.499 13.625c0 0.691 0.56 1.25 1.251 1.25h5.25c0.69 0 1.25-0.56 1.25-1.25s-0.56-1.25-1.25-1.25h-5.25c-0.691 0-1.251 0.56-1.251 1.25zM19.499 18.708c0 0.69 0.56 1.25 1.251 1.25h5.25c0.69 0 1.25-0.56 1.25-1.25s-0.56-1.25-1.25-1.25h-5.25c-0.691 0-1.251 0.56-1.251 1.251zM4.751 13.625c0 0.691 0.56 1.25 1.25 1.25h5.25c0.69 0 1.25-0.56 1.25-1.25s-0.56-1.25-1.25-1.25h-5.251c-0.691 0-1.25 0.56-1.25 1.25zM11.251 7.292h-5.251c-0.69 0-1.25 0.56-1.25 1.25s0.56 1.25 1.25 1.25h5.25c0.69 0 1.25-0.56 1.25-1.25s-0.56-1.25-1.25-1.25v0zM4.75 18.708c0 0.69 0.56 1.25 1.25 1.25h5.25c0.69 0 1.25-0.56 1.25-1.25s-0.56-1.25-1.25-1.25h-5.25c-0.691 0-1.25 0.56-1.25 1.251z"></path>
</symbol>
<symbol id="Convenience" viewBox="0 0 33 32">
<path fill="#fff" style="fill: var(--color1, #fff)" d="M17.65 9.089c0 0.69-0.56 1.25-1.25 1.25h-1.098l-1.61 2.514c-0.226 0.348-0.613 0.575-1.053 0.575-0.554 0-1.024-0.36-1.188-0.859l-0.003-0.009-1.168-3.65-0.547 0.853c-0.23 0.359-0.626 0.576-1.052 0.576h-2.282c-0.69 0-1.25-0.56-1.25-1.25s0.56-1.25 1.25-1.25h1.598l1.61-2.514c0.226-0.349 0.613-0.577 1.053-0.577 0.554 0 1.024 0.361 1.188 0.861l0.002 0.009 1.168 3.65 0.547-0.854c0.23-0.358 0.626-0.576 1.052-0.576h1.782c0.69 0 1.25 0.56 1.25 1.25zM32.4 30.75c0 0.691-0.56 1.25-1.25 1.25h-15.329c-0.69 0-1.25-0.56-1.25-1.25 0-1.938 0.612-3.782 1.77-5.332 0.735-0.972 1.638-1.775 2.672-2.377l0.043-0.023c-0.558-0.829-0.891-1.85-0.891-2.949 0-0.679 0.127-1.329 0.359-1.927l-0.012 0.036h-2.453l1.623 2.364c0.137 0.198 0.219 0.443 0.219 0.707 0 0.69-0.559 1.25-1.25 1.25h-10c-0 0-0.001 0-0.002 0-0.69 0-1.25-0.559-1.25-1.25 0-0.265 0.082-0.51 0.223-0.712l-0.003 0.004 1.623-2.365h-5.592c-0.692 0.001-1.251-0.559-1.251-1.25v-15.678c0-0.69 0.56-1.25 1.25-1.25h20c0.69 0 1.25 0.56 1.25 1.25v13.532c0.174-0.020 0.375-0.032 0.579-0.032 2.94 0 5.324 2.381 5.328 5.32v0c0 1.089-0.33 2.102-0.892 2.946 1.077 0.625 1.979 1.428 2.698 2.377l0.016 0.023c1.105 1.46 1.77 3.306 1.77 5.308 0 0.009 0 0.018-0 0.026v-0.001zM20.663 20.072c0.002 1.558 1.264 2.82 2.821 2.822h0c1.558-0.002 2.821-1.264 2.822-2.822v-0c-0.027-1.538-1.28-2.775-2.822-2.775s-2.795 1.237-2.822 2.772l-0 0.003zM14.276 20l-1.25-1.822h-2.752l-1.25 1.822h5.252zM20.4 15.678v-13.178h-17.5v13.178h17.5zM29.779 29.5c-0.199-0.988-0.601-1.858-1.164-2.602l0.012 0.016c-0.697-0.923-1.615-1.644-2.677-2.090l-0.043-0.016c-0.703 0.369-1.535 0.586-2.418 0.586-0.002 0-0.003 0-0.004 0h0c-0.001 0-0.002 0-0.003 0-0.883 0-1.716-0.217-2.448-0.599l0.029 0.014c-1.105 0.462-2.023 1.183-2.709 2.089l-0.012 0.016c-0.551 0.727-0.953 1.598-1.145 2.545l-0.007 0.041h12.589z"></path>
</symbol>
<symbol id="deposit" viewBox="0 0 32 32">
<path fill="#fff" style="fill: var(--color1, #fff)" d="M15.75 23.5h-4.5c-0.69 0-1.25-0.56-1.25-1.25s0.56-1.25 1.25-1.25h4.5c0.69 0 1.25 0.56 1.25 1.25s-0.56 1.25-1.25 1.25v0zM1.25 3.5h24.501c0.69 0 1.25 0.56 1.25 1.25s-0.56 1.25-1.25 1.25v0h-23.252v16.25c0 0.69-0.56 1.25-1.25 1.25s-1.25-0.56-1.25-1.25v0-17.5c0-0.691 0.56-1.251 1.25-1.251zM25.75 23.5h-5c-0.691 0-1.251-0.56-1.251-1.251v-5c0-0.69 0.56-1.25 1.251-1.25h5c0.69 0 1.25 0.56 1.25 1.25v5c0 0.691-0.56 1.251-1.25 1.251zM24.5 18.5h-2.5v2.5h2.5v-2.5zM6.251 8.5h24.5c0.69 0 1.25 0.56 1.25 1.25v17.5c0 0.691-0.56 1.251-1.25 1.251h-24.501c-0.69 0-1.25-0.56-1.25-1.251v-17.499c0-0.691 0.56-1.25 1.25-1.25zM7.499 26h22v-15h-21.998v15z"></path>
</symbol>
<symbol id="Income" viewBox="0 0 33 32">
<path fill="#fff" style="fill: var(--color1, #fff)" d="M32.4 15.875v5.562c-0.066 1.658-2.434 1.657-2.5 0v-2.47l-3.978 3.978c-0.235 0.234-0.553 0.366-0.884 0.366h-6.308l-8.321 8.322c-0.226 0.226-0.539 0.366-0.884 0.366-0.69 0-1.25-0.56-1.25-1.25 0-0.345 0.14-0.658 0.366-0.884l8.688-8.687c0.234-0.234 0.552-0.366 0.883-0.366h6.307l3.688-3.687h-2.682c-1.659-0.066-1.658-2.434 0-2.5h5.624c0.691 0 1.25 0.56 1.25 1.25zM31.15 25.187c-0.69 0-1.25 0.56-1.25 1.25v4.312c0.066 1.659 2.434 1.658 2.5 0v-4.312c0-0.69-0.56-1.25-1.25-1.25zM26.15 25.187c-0.69 0-1.25 0.56-1.25 1.25v4.312c0.066 1.659 2.434 1.658 2.5 0v-4.312c0-0.69-0.56-1.25-1.25-1.25zM21.15 25.187c-0.69 0-1.25 0.56-1.25 1.25v4.312c0.066 1.659 2.435 1.658 2.5 0v-4.312c0-0.69-0.56-1.25-1.25-1.25zM16.15 28.999c-0.69 0-1.25 0.56-1.25 1.25v0.5c0.066 1.658 2.435 1.657 2.5 0v-0.5c0-0.69-0.56-1.25-1.25-1.25zM13.588 21.187c0.69 0 1.25-0.56 1.25-1.25v-0.768c3.918-1.45 2.973-7.214-1.25-7.294-1.662-0.068-1.654-2.422 0-2.491 0.502 0 0.902 0.266 1.099 0.73 0.2 0.439 0.636 0.739 1.141 0.739 0.691 0 1.25-0.56 1.25-1.25 0-0.168-0.033-0.328-0.093-0.474l0.003 0.008c-0.418-0.986-1.196-1.706-2.151-2.042v-0.844c-0.066-1.659-2.434-1.658-2.5 0v0.848c-3.912 1.45-2.979 7.196 1.25 7.277 1.653 0.068 1.663 2.44 0 2.509-0.486 0-0.968-0.318-1.172-0.772-0.201-0.438-0.635-0.737-1.14-0.737-0.69 0-1.25 0.56-1.25 1.25 0 0.186 0.041 0.362 0.113 0.521l-0.003-0.008c0.439 0.941 1.218 1.662 2.175 2.015l0.027 0.009v0.776c0 0.69 0.56 1.25 1.25 1.25zM9.276 25.467c0.69-0.001 1.249-0.56 1.249-1.25 0-0.529-0.329-0.982-0.793-1.164l-0.008-0.003c-10.883-4.395-7.96-20.354 3.802-20.55 0.007 0 0.015-0 0.023-0 5.211 0 9.543 3.76 10.433 8.714l0.010 0.064c0.107 0.591 0.617 1.034 1.231 1.034 0.69 0 1.25-0.56 1.25-1.25 0-0.076-0.007-0.151-0.020-0.224l0.001 0.008c-0.566-3.12-2.165-5.795-4.423-7.718l-0.018-0.015c-8.425-7.202-21.647-1.086-21.61 10.012-0.063 5.336 3.438 10.406 8.427 12.259 0.147 0.056 0.298 0.083 0.448 0.083z"></path>
</symbol>
<symbol id="money" viewBox="0 0 32 32">
<path fill="#fff" style="fill: var(--color1, #fff)" d="M1.25 9.75h14.51c0.174-0.485 0.37-0.948 0.587-1.38 1.167-2.334 2.82-3.62 4.653-3.62h4.75c1.834 0 3.486 1.285 4.653 3.62 1.029 2.060 1.596 4.769 1.596 7.63s-0.567 5.571-1.596 7.63c-1.167 2.334-2.82 3.62-4.653 3.62h-4.75c-1.401 0-2.696-0.751-3.75-2.147v0.897c0 0.691-0.56 1.25-1.25 1.25h-14.75c-0.69 0-1.25-0.56-1.25-1.25v-15c0-0.691 0.56-1.25 1.25-1.25zM14.75 17.25h-12.251v2.5h12.251v-2.5zM14.75 12.25h-12.251v2.5h12.251v-2.501zM29.5 16c0-5.008-1.98-8.75-3.749-8.75s-3.75 3.742-3.75 8.75 1.98 8.75 3.75 8.75c1.77 0 3.749-3.742 3.749-8.75zM21 24.75h0.748c-1.632-2.414-2.248-5.844-2.248-8.75s0.615-6.335 2.248-8.75h-0.748c-1.77 0-3.75 3.742-3.75 8.75s1.98 8.75 3.75 8.75zM2.5 24.75h12.251v-2.501h-12.251v2.5z"></path>
</symbol>
<symbol id="OpenStatistics" viewBox="0 0 33 32">
<path fill="#fff" style="fill: var(--color1, #fff)" d="M16.15 15h1.25v6.25c0 0.69 0.56 1.25 1.25 1.25s1.25-0.56 1.25-1.25v-6.25h1.25c0.69 0 1.25-0.56 1.25-1.25v-10c0-0.69-0.56-1.25-1.25-1.25h-1.25v-1.25c0-0.69-0.56-1.25-1.25-1.25s-1.25 0.56-1.25 1.25v1.25h-1.25c-0.69 0-1.25 0.56-1.25 1.25v10c0 0.69 0.56 1.25 1.25 1.25zM17.4 5h2.5v7.5h-2.5v-7.5zM6.15 25h1.25v1.25c0 0.69 0.56 1.25 1.25 1.25s1.25-0.56 1.25-1.25v-1.25h1.25c0.69 0 1.25-0.56 1.25-1.25v-10c0-0.69-0.56-1.25-1.25-1.25h-1.25v-1.25c0-0.69-0.56-1.25-1.25-1.25s-1.25 0.56-1.25 1.25v1.25h-1.25c-0.69 0-1.25 0.56-1.25 1.25v10c0 0.69 0.56 1.25 1.25 1.25zM7.4 15h2.5v7.5h-2.5v-7.5zM31.15 29.5h-28.251v-28.25c0-0.69-0.56-1.25-1.25-1.25s-1.25 0.56-1.25 1.25v0 29.501c0.001 0.69 0.561 1.25 1.251 1.25h29.499c0.69 0 1.25-0.56 1.25-1.25s-0.56-1.25-1.25-1.25v0zM31.15 10h-1.25v-6.25c0-0.69-0.56-1.25-1.25-1.25s-1.25 0.56-1.25 1.25v6.25h-1.25c-0.69 0-1.25 0.56-1.25 1.25v7.499c0 0.69 0.56 1.25 1.25 1.25h1.25v3.75c0 0.69 0.56 1.25 1.25 1.25s1.25-0.56 1.25-1.25v-3.75h1.25c0.69 0 1.25-0.56 1.25-1.25v-7.5c0-0.69-0.56-1.25-1.25-1.25zM29.9 17.5h-2.5v-5h2.5v5z"></path>
</symbol>
<symbol id="Profile" viewBox="0 0 30 32">
<path fill="#fff" style="fill: var(--color1, #fff)" d="M20.903 10.302c0 3.698-2.791 6.663-6.276 6.663-3.481 0-6.272-2.965-6.272-6.663s2.791-6.663 6.276-6.663c3.484 0 6.276 2.964 6.276 6.663zM14.628 28.823c-5.138 0-9.479-0.887-9.479-4.313s4.366-4.283 9.481-4.283c5.141 0 9.481 0.889 9.481 4.313 0 3.428-4.368 4.284-9.481 4.284z"></path>
</symbol>
<symbol id="rating" viewBox="0 0 32 32">
<path fill="#fff" style="fill: var(--color1, #fff)" d="M1.25 22h8.5v-6.25c0-0.691 0.56-1.251 1.25-1.251h10c0.691 0 1.25 0.56 1.25 1.251v3.749h8.5c0.69 0 1.25 0.56 1.25 1.251v10c0 0.69-0.56 1.25-1.25 1.25h-29.5c-0.69 0-1.25-0.56-1.25-1.25v-7.5c0-0.69 0.56-1.25 1.25-1.25zM22.25 29.5h7.251v-7.5h-7.252v7.5zM12.25 23.25v6.251h7.5v-12.5h-7.501v6.25zM2.5 29.5h7.251v-5.001h-7.25v5zM19.446 7.458l0.451 2.625c0.012 0.064 0.018 0.137 0.018 0.212 0 0.69-0.56 1.25-1.25 1.25-0.213 0-0.413-0.053-0.588-0.147l0.007 0.003-2.358-1.24-2.357 1.24c-0.169 0.090-0.369 0.144-0.582 0.144-0.69 0-1.25-0.56-1.25-1.25 0-0.075 0.007-0.148 0.019-0.22l-0.001 0.008 0.451-2.625-1.908-1.858c-0.233-0.227-0.378-0.544-0.378-0.895 0-0.627 0.462-1.147 1.064-1.236l0.007-0.001 2.635-0.382 1.18-2.389c0.209-0.416 0.632-0.697 1.121-0.697s0.912 0.281 1.118 0.69l0.003 0.007 1.179 2.388 2.636 0.383c0.609 0.090 1.071 0.61 1.071 1.237 0 0.351-0.145 0.668-0.378 0.895l-0 0-1.908 1.859zM17.015 5.463c-0.415-0.062-0.759-0.321-0.938-0.676l-0.003-0.007-0.348-0.706-0.348 0.706c-0.182 0.369-0.533 0.625-0.941 0.684l-0.78 0.113 0.564 0.549c0.294 0.287 0.429 0.701 0.359 1.107l-0.133 0.776 0.698-0.366c0.364-0.191 0.799-0.191 1.163 0l0.698 0.366-0.133-0.776c-0.012-0.064-0.018-0.137-0.018-0.212 0-0.351 0.144-0.668 0.377-0.894l0.565-0.55-0.78-0.114z"></path>
</symbol>
<symbol id="regisr" viewBox="0 0 32 32">
<path fill="#fff" style="fill: var(--color1, #fff)" d="M21.625 12.969c0.030 0.002-0.030 0 0 0zM18.318 7.764c0.216-0.184 0.498-0.295 0.807-0.295 0.382 0 0.724 0.172 0.954 0.442l0.002 0.002 1.711 2.027 0.88-0.78c0.22-0.195 0.51-0.314 0.829-0.314 0.69 0 1.25 0.56 1.25 1.25 0 0.372-0.162 0.706-0.42 0.934l-0.001 0.001-1.837 1.628c-0.229 0.204-0.562 0.311-0.867 0.311-0.375 0-0.7-0.182-0.917-0.44l-2.538-3.004c-0.184-0.216-0.295-0.498-0.295-0.807 0-0.382 0.172-0.724 0.442-0.954l0.002-0.002zM18.318 14.764c0.216-0.184 0.498-0.295 0.807-0.295 0.382 0 0.724 0.172 0.954 0.442l0.002 0.002 1.711 2.027 0.88-0.78c0.22-0.195 0.51-0.314 0.829-0.314 0.69 0 1.25 0.56 1.25 1.25 0 0.372-0.162 0.706-0.42 0.934l-0.001 0.001-1.837 1.628c-0.229 0.204-0.562 0.311-0.867 0.311-0.375 0-0.7-0.182-0.917-0.44l-2.538-3.004c-0.184-0.216-0.295-0.498-0.295-0.807 0-0.382 0.172-0.724 0.442-0.954l0.002-0.002zM8.75 9.098h6.5c0.69 0 1.25 0.56 1.25 1.25s-0.56 1.25-1.25 1.25h-6.5c-0.69 0-1.25-0.56-1.25-1.25s0.56-1.25 1.25-1.25v0zM0 23.093c0.004 3.45 2.8 6.246 6.249 6.251h19.502c3.45-0.005 6.245-2.801 6.249-6.25v-0c0-0.69-0.56-1.25-1.25-1.25h-1.251v-17.938c0-0.69-0.56-1.25-1.25-1.25h-24.499c-0.691 0-1.251 0.56-1.251 1.251v17.938h-1.25c-0.691-0.001-1.251 0.558-1.251 1.249zM27 21.844h-22v-16.687h22v16.687zM2.714 24.344h26.572c-0.532 1.467-1.913 2.497-3.535 2.5h-19.502c-1.622-0.002-3.004-1.032-3.528-2.473l-0.008-0.026zM8.749 16.035h6.5c0.69 0 1.25 0.56 1.25 1.25s-0.56 1.25-1.25 1.25h-6.5c-0.69 0-1.25-0.56-1.25-1.25s0.56-1.25 1.25-1.25v0z"></path>
</symbol>
<symbol id="registr2" viewBox="0 0 32 32">
<path fill="#fff" style="fill: var(--color1, #fff)" d="M3.708 4.917h1.209v-3.668c0-0.69 0.56-1.25 1.25-1.25h19.666c0.691 0 1.25 0.56 1.25 1.25v3.668h1.209c0.001 0 0.001 0 0.002 0 2.047 0 3.707 1.66 3.707 3.707 0 0 0 0.001 0 0.001v-0 14.75c0 2.044-1.663 3.708-3.708 3.708h-6.581l1.209 2.418h2.914c0.69 0 1.25 0.56 1.25 1.25s-0.56 1.25-1.25 1.25h-19.667c-0.69 0-1.25-0.56-1.25-1.25s0.56-1.25 1.25-1.25h2.916l1.209-2.417h-6.583c-2.047-0.003-3.705-1.661-3.708-3.707v-14.75c0-2.044 1.663-3.708 3.708-3.708zM3.708 7.417c-0.667 0-1.209 0.542-1.209 1.209v11.041h2.418v-12.249h-1.209zM24.583 2.5h-17.166v17.166h17.166v-17.167zM28.292 7.417h-1.209v12.25h2.418v-11.042c0-0.668-0.541-1.208-1.209-1.208zM11.876 29.5h8.247l-1.209-2.417h-5.829l-1.209 2.418zM3.708 24.583h24.584c0.667 0 1.209-0.542 1.209-1.209v-1.207h-27.002v1.208c0 0.667 0.542 1.208 1.209 1.208zM22.168 8.625c0-0.691-0.56-1.25-1.251-1.25h-1.229c-0.69 0-1.25 0.56-1.25 1.25s0.56 1.25 1.25 1.25h1.229c0.691 0 1.251-0.56 1.251-1.25zM17.251 8.625c0-0.691-0.56-1.25-1.25-1.25h-4.916c-0.69 0-1.25 0.56-1.25 1.25s0.56 1.25 1.25 1.25h4.916c0.691 0 1.25-0.56 1.25-1.25zM22.168 14.741c0-0.691-0.56-1.25-1.251-1.25h-1.229c-0.69 0-1.25 0.56-1.25 1.25s0.56 1.25 1.25 1.25h1.229c0.691 0 1.251-0.56 1.251-1.25zM17.251 14.741c0-0.691-0.56-1.25-1.25-1.25h-4.916c-0.69 0-1.25 0.56-1.25 1.25s0.56 1.25 1.25 1.25h4.916c0.691 0 1.25-0.56 1.25-1.25z"></path>
</symbol>
<symbol id="Security" viewBox="0 0 33 32">
<path fill="#fff" style="fill: var(--color1, #fff)" d="M18.016 12.366l-2.866 2.866-0.366-0.366c-0.226-0.226-0.539-0.366-0.884-0.366-0.69 0-1.25 0.56-1.25 1.25 0 0.345 0.14 0.658 0.366 0.884l1.25 1.25c0.244 0.244 0.564 0.366 0.884 0.366s0.64-0.122 0.883-0.366l3.75-3.75c0.226-0.226 0.366-0.539 0.366-0.884 0-0.69-0.56-1.25-1.25-1.25-0.345 0-0.658 0.14-0.884 0.366v0zM28.9 2.5h-2.5c-0.69 0-1.25-0.56-1.25-1.25s-0.559-1.25-1.25-1.25h-15c-0.69 0-1.25 0.56-1.25 1.25 0 0.334-0.13 0.648-0.366 0.883-0.225 0.226-0.536 0.366-0.881 0.366-0.001 0-0.002 0-0.003 0h-2.5c-0.69 0-1.25 0.56-1.25 1.25v11.752c0 4.552 1.648 8.6 4.766 11.706 2.373 2.365 5.64 4.147 8.74 4.767 0.074 0.015 0.158 0.024 0.245 0.024s0.171-0.009 0.253-0.026l-0.008 0.001c3.931-0.809 7.279-2.894 9.675-5.795l0.023-0.029c2.367-2.876 3.804-6.595 3.808-10.65v-11.753c0-0.69-0.56-1.25-1.25-1.25zM27.65 15.502c0 6.709-4.715 12.544-11.248 13.97-4.614-1.031-11.251-5.52-11.251-13.97v-10.502h1.25c1.002 0 1.944-0.39 2.652-1.098 0.386-0.385 0.688-0.853 0.877-1.376l0.008-0.026h12.926c0.532 1.468 1.913 2.498 3.536 2.5h1.251v10.502zM24.318 7.144c-1.021-0.371-1.886-0.963-2.569-1.722l-0.005-0.006c-0.237-0.265-0.576-0.416-0.93-0.416h-8.829c-0.355 0-0.694 0.151-0.93 0.416-0.688 0.765-1.552 1.357-2.53 1.714l-0.044 0.014c-0.489 0.177-0.832 0.637-0.832 1.178v7.181c0 5.278 3.472 9.808 8.389 11.295 0.108 0.034 0.233 0.053 0.362 0.053s0.253-0.020 0.37-0.056l-0.009 0.002c4.954-1.498 8.388-6.089 8.388-11.296v-7.18c0-0.529-0.333-1.001-0.832-1.178zM22.65 15.502c0 3.938-2.552 7.496-6.251 8.784-3.666-1.283-6.249-4.713-6.249-8.746 0-0.013 0-0.026 0-0.040v0.002-6.348c0.912-0.441 1.694-0.995 2.37-1.656l-0.002 0.002h7.762c0.694 0.678 1.496 1.238 2.369 1.654v6.348z"></path>
</symbol>
<symbol id="telegram" viewBox="0 0 32 32">
<path fill="#fff" style="fill: var(--color1, #fff)" d="M29.165 3.831l-25.663 9.165c-0.916 0.328-0.992 1.592-0.122 2.027l6.22 3.11 12.8-8.533-8.533 10.667 11.38 7.586c0.172 0.116 0.384 0.185 0.612 0.185 0.545 0 0.998-0.396 1.088-0.916l0.001-0.007 3.678-22.065c0.010-0.055 0.015-0.117 0.015-0.181 0-0.609-0.494-1.103-1.103-1.103-0.133 0-0.261 0.024-0.379 0.067l0.008-0.002z"></path>
</symbol>
</defs>
</svg>
